<mxfile host="Electron" agent="Mozilla/5.0 (Windows NT 10.0; Win64; x64) AppleWebKit/537.36 (KHTML, like Gecko) draw.io/28.2.5 Chrome/138.0.7204.251 Electron/37.6.1 Safari/537.36" version="28.2.5" pages="4">
  <diagram name="Server admin" id="58cdce13-f638-feb5-8d6f-7d28b1aa9fa0">
    <mxGraphModel dx="1426" dy="961" grid="1" gridSize="10" guides="1" tooltips="1" connect="1" arrows="1" fold="1" page="1" pageScale="1" pageWidth="1100" pageHeight="850" background="none" math="0" shadow="0">
      <root>
        <mxCell id="0" />
        <mxCell id="1" parent="0" />
        <mxCell id="MKT5L-HKByu47KLvk_st-2" value="Server Administrator" style="shape=umlActor;verticalLabelPosition=bottom;verticalAlign=top;html=1;outlineConnect=0;" parent="1" vertex="1">
          <mxGeometry x="140" y="115" width="30" height="60" as="geometry" />
        </mxCell>
        <mxCell id="MKT5L-HKByu47KLvk_st-50" value="" style="endArrow=none;html=1;rounded=0;entryX=0;entryY=0.5;entryDx=0;entryDy=0;" parent="1" target="MKT5L-HKByu47KLvk_st-51" edge="1" source="MKT5L-HKByu47KLvk_st-2">
          <mxGeometry width="50" height="50" relative="1" as="geometry">
            <mxPoint x="170" y="70" as="sourcePoint" />
            <mxPoint x="310.0000000000002" y="75" as="targetPoint" />
          </mxGeometry>
        </mxCell>
        <mxCell id="MKT5L-HKByu47KLvk_st-51" value="Monitor system" style="ellipse;whiteSpace=wrap;html=1;" parent="1" vertex="1">
          <mxGeometry x="310" y="35" width="140" height="70" as="geometry" />
        </mxCell>
        <mxCell id="d2TL0L8-SBW69Fmyn4zU-1" value="" style="endArrow=none;html=1;rounded=0;entryX=0;entryY=0.5;entryDx=0;entryDy=0;" edge="1" parent="1" target="d2TL0L8-SBW69Fmyn4zU-2" source="MKT5L-HKByu47KLvk_st-2">
          <mxGeometry width="50" height="50" relative="1" as="geometry">
            <mxPoint x="830" y="165" as="sourcePoint" />
            <mxPoint x="970.0000000000002" y="170" as="targetPoint" />
          </mxGeometry>
        </mxCell>
        <mxCell id="d2TL0L8-SBW69Fmyn4zU-2" value="Manage user database" style="ellipse;whiteSpace=wrap;html=1;" vertex="1" parent="1">
          <mxGeometry x="310" y="265" width="140" height="70" as="geometry" />
        </mxCell>
        <mxCell id="d2TL0L8-SBW69Fmyn4zU-3" value="" style="endArrow=none;html=1;rounded=0;entryX=0;entryY=0.5;entryDx=0;entryDy=0;" edge="1" parent="1" target="d2TL0L8-SBW69Fmyn4zU-4" source="MKT5L-HKByu47KLvk_st-2">
          <mxGeometry width="50" height="50" relative="1" as="geometry">
            <mxPoint x="170" y="145" as="sourcePoint" />
            <mxPoint x="310.0000000000002" y="150" as="targetPoint" />
          </mxGeometry>
        </mxCell>
        <mxCell id="d2TL0L8-SBW69Fmyn4zU-4" value="Manage plant database" style="ellipse;whiteSpace=wrap;html=1;" vertex="1" parent="1">
          <mxGeometry x="310" y="110" width="140" height="70" as="geometry" />
        </mxCell>
        <mxCell id="d2TL0L8-SBW69Fmyn4zU-6" value="&amp;lt;&amp;lt;extend&amp;gt;&amp;gt;" style="endArrow=open;endSize=12;dashed=1;html=1;rounded=0;entryX=1;entryY=0;entryDx=0;entryDy=0;exitX=0;exitY=0.5;exitDx=0;exitDy=0;" edge="1" parent="1" source="d2TL0L8-SBW69Fmyn4zU-8" target="d2TL0L8-SBW69Fmyn4zU-2">
          <mxGeometry x="0.0029" y="11" width="160" relative="1" as="geometry">
            <mxPoint x="520" y="275" as="sourcePoint" />
            <mxPoint x="591" y="245" as="targetPoint" />
            <mxPoint as="offset" />
          </mxGeometry>
        </mxCell>
        <mxCell id="d2TL0L8-SBW69Fmyn4zU-7" value="&amp;lt;&amp;lt;extend&amp;gt;&amp;gt;" style="endArrow=open;endSize=12;dashed=1;html=1;rounded=0;entryX=1;entryY=0.5;entryDx=0;entryDy=0;exitX=0;exitY=0.5;exitDx=0;exitDy=0;" edge="1" parent="1" target="d2TL0L8-SBW69Fmyn4zU-2" source="d2TL0L8-SBW69Fmyn4zU-9">
          <mxGeometry x="-0.0909" y="10" width="160" relative="1" as="geometry">
            <mxPoint x="520" y="335" as="sourcePoint" />
            <mxPoint x="591" y="315" as="targetPoint" />
            <mxPoint as="offset" />
          </mxGeometry>
        </mxCell>
        <mxCell id="d2TL0L8-SBW69Fmyn4zU-8" value="Create smart device manufacturer account" style="ellipse;whiteSpace=wrap;html=1;" vertex="1" parent="1">
          <mxGeometry x="540" y="180" width="140" height="70" as="geometry" />
        </mxCell>
        <mxCell id="d2TL0L8-SBW69Fmyn4zU-9" value="Create plant database manager account" style="ellipse;whiteSpace=wrap;html=1;" vertex="1" parent="1">
          <mxGeometry x="540" y="265" width="140" height="70" as="geometry" />
        </mxCell>
        <mxCell id="d2TL0L8-SBW69Fmyn4zU-10" value="&amp;lt;&amp;lt;extend&amp;gt;&amp;gt;" style="endArrow=open;endSize=12;dashed=1;html=1;rounded=0;entryX=1;entryY=1;entryDx=0;entryDy=0;exitX=0;exitY=0.5;exitDx=0;exitDy=0;" edge="1" parent="1" target="d2TL0L8-SBW69Fmyn4zU-2" source="d2TL0L8-SBW69Fmyn4zU-11">
          <mxGeometry x="0.1144" y="21" width="160" relative="1" as="geometry">
            <mxPoint x="430" y="375" as="sourcePoint" />
            <mxPoint x="591" y="380" as="targetPoint" />
            <mxPoint as="offset" />
          </mxGeometry>
        </mxCell>
        <mxCell id="d2TL0L8-SBW69Fmyn4zU-11" value="Delete any user account" style="ellipse;whiteSpace=wrap;html=1;" vertex="1" parent="1">
          <mxGeometry x="540" y="345" width="140" height="70" as="geometry" />
        </mxCell>
        <mxCell id="0F_dj00f5w78iuBzQHGp-1" value="Manage device database" style="ellipse;whiteSpace=wrap;html=1;" vertex="1" parent="1">
          <mxGeometry x="310" y="190" width="140" height="70" as="geometry" />
        </mxCell>
        <mxCell id="0F_dj00f5w78iuBzQHGp-2" value="" style="endArrow=none;html=1;rounded=0;entryX=0;entryY=0.5;entryDx=0;entryDy=0;" edge="1" parent="1" source="MKT5L-HKByu47KLvk_st-2" target="0F_dj00f5w78iuBzQHGp-1">
          <mxGeometry width="50" height="50" relative="1" as="geometry">
            <mxPoint x="290" y="170" as="sourcePoint" />
            <mxPoint x="430" y="170" as="targetPoint" />
          </mxGeometry>
        </mxCell>
      </root>
    </mxGraphModel>
  </diagram>
  <diagram id="doACZIbjRoyqRlmRhO2o" name="Manufacturer">
    <mxGraphModel dx="1426" dy="961" grid="1" gridSize="10" guides="1" tooltips="1" connect="1" arrows="1" fold="1" page="1" pageScale="1" pageWidth="850" pageHeight="1100" math="0" shadow="0">
      <root>
        <mxCell id="0" />
        <mxCell id="1" parent="0" />
        <mxCell id="XN1eyMJdOzFI9WAOLOWf-1" value="Smart Device&lt;div&gt;Manufacturer&lt;/div&gt;" style="shape=umlActor;verticalLabelPosition=bottom;verticalAlign=top;html=1;outlineConnect=0;" vertex="1" parent="1">
          <mxGeometry x="120" y="210" width="30" height="60" as="geometry" />
        </mxCell>
        <mxCell id="XN1eyMJdOzFI9WAOLOWf-2" value="" style="endArrow=none;html=1;rounded=0;entryX=0;entryY=0.5;entryDx=0;entryDy=0;" edge="1" parent="1" source="XN1eyMJdOzFI9WAOLOWf-1" target="XN1eyMJdOzFI9WAOLOWf-6">
          <mxGeometry width="50" height="50" relative="1" as="geometry">
            <mxPoint x="360" y="330" as="sourcePoint" />
            <mxPoint x="290.0000000000002" y="240" as="targetPoint" />
          </mxGeometry>
        </mxCell>
        <mxCell id="XN1eyMJdOzFI9WAOLOWf-3" value="&amp;lt;&amp;lt;include&amp;gt;&amp;gt;" style="endArrow=open;endSize=12;dashed=1;html=1;rounded=0;exitX=1;exitY=0;exitDx=0;exitDy=0;entryX=0;entryY=0.5;entryDx=0;entryDy=0;" edge="1" parent="1" source="XN1eyMJdOzFI9WAOLOWf-6" target="XN1eyMJdOzFI9WAOLOWf-7">
          <mxGeometry x="0.3092" y="17" width="160" relative="1" as="geometry">
            <mxPoint x="401.24218865895614" y="215.40309113885303" as="sourcePoint" />
            <mxPoint x="530" y="170" as="targetPoint" />
            <mxPoint as="offset" />
          </mxGeometry>
        </mxCell>
        <mxCell id="XN1eyMJdOzFI9WAOLOWf-4" value="&amp;lt;&amp;lt;include&amp;gt;&amp;gt;" style="endArrow=open;endSize=12;dashed=1;html=1;rounded=0;exitX=1;exitY=0.5;exitDx=0;exitDy=0;entryX=0;entryY=0.5;entryDx=0;entryDy=0;" edge="1" parent="1" source="XN1eyMJdOzFI9WAOLOWf-6" target="XN1eyMJdOzFI9WAOLOWf-8">
          <mxGeometry x="-0.0909" y="10" width="160" relative="1" as="geometry">
            <mxPoint x="419.9999999999998" y="240" as="sourcePoint" />
            <mxPoint x="530" y="240" as="targetPoint" />
            <mxPoint as="offset" />
          </mxGeometry>
        </mxCell>
        <mxCell id="XN1eyMJdOzFI9WAOLOWf-5" value="&amp;lt;&amp;lt;include&amp;gt;&amp;gt;" style="endArrow=open;endSize=12;dashed=1;html=1;rounded=0;exitX=1;exitY=1;exitDx=0;exitDy=0;entryX=0;entryY=0.5;entryDx=0;entryDy=0;" edge="1" parent="1" source="XN1eyMJdOzFI9WAOLOWf-6" target="XN1eyMJdOzFI9WAOLOWf-9">
          <mxGeometry x="0.1144" y="21" width="160" relative="1" as="geometry">
            <mxPoint x="401.24218865895614" y="264.59690886114686" as="sourcePoint" />
            <mxPoint x="530" y="310" as="targetPoint" />
            <mxPoint as="offset" />
          </mxGeometry>
        </mxCell>
        <mxCell id="XN1eyMJdOzFI9WAOLOWf-6" value="Add new smart device to database" style="ellipse;whiteSpace=wrap;html=1;" vertex="1" parent="1">
          <mxGeometry x="280" y="130" width="140" height="70" as="geometry" />
        </mxCell>
        <mxCell id="XN1eyMJdOzFI9WAOLOWf-7" value="Provide communication interface description" style="ellipse;whiteSpace=wrap;html=1;" vertex="1" parent="1">
          <mxGeometry x="530" y="50" width="140" height="70" as="geometry" />
        </mxCell>
        <mxCell id="XN1eyMJdOzFI9WAOLOWf-8" value="Provide functionality description" style="ellipse;whiteSpace=wrap;html=1;" vertex="1" parent="1">
          <mxGeometry x="530" y="130" width="140" height="70" as="geometry" />
        </mxCell>
        <mxCell id="XN1eyMJdOzFI9WAOLOWf-9" value="Provide device type" style="ellipse;whiteSpace=wrap;html=1;" vertex="1" parent="1">
          <mxGeometry x="530" y="210" width="140" height="70" as="geometry" />
        </mxCell>
        <mxCell id="XN1eyMJdOzFI9WAOLOWf-10" value="Add new smart device type to database" style="ellipse;whiteSpace=wrap;html=1;" vertex="1" parent="1">
          <mxGeometry x="280" y="280" width="140" height="70" as="geometry" />
        </mxCell>
        <mxCell id="XN1eyMJdOzFI9WAOLOWf-11" value="" style="endArrow=none;html=1;rounded=0;entryX=0;entryY=0.5;entryDx=0;entryDy=0;" edge="1" parent="1" source="XN1eyMJdOzFI9WAOLOWf-1" target="XN1eyMJdOzFI9WAOLOWf-10">
          <mxGeometry width="50" height="50" relative="1" as="geometry">
            <mxPoint x="230" y="236" as="sourcePoint" />
            <mxPoint x="370" y="236" as="targetPoint" />
          </mxGeometry>
        </mxCell>
      </root>
    </mxGraphModel>
  </diagram>
  <diagram id="cIceaV7HSKmucog1wkd9" name="Plant db mgr">
    <mxGraphModel dx="1426" dy="961" grid="1" gridSize="10" guides="1" tooltips="1" connect="1" arrows="1" fold="1" page="1" pageScale="1" pageWidth="850" pageHeight="1100" math="0" shadow="0">
      <root>
        <mxCell id="0" />
        <mxCell id="1" parent="0" />
        <mxCell id="wb4F1lY3_vZGzMJMdyn--1" style="rounded=0;orthogonalLoop=1;jettySize=auto;html=1;entryX=0;entryY=0.5;entryDx=0;entryDy=0;endArrow=none;endFill=0;" edge="1" parent="1" source="wb4F1lY3_vZGzMJMdyn--17" target="wb4F1lY3_vZGzMJMdyn--2">
          <mxGeometry relative="1" as="geometry" />
        </mxCell>
        <mxCell id="wb4F1lY3_vZGzMJMdyn--2" value="Add new plant to database" style="ellipse;whiteSpace=wrap;html=1;" vertex="1" parent="1">
          <mxGeometry x="240" y="110" width="140" height="70" as="geometry" />
        </mxCell>
        <mxCell id="wb4F1lY3_vZGzMJMdyn--3" value="Edit existing plant data in database" style="ellipse;whiteSpace=wrap;html=1;" vertex="1" parent="1">
          <mxGeometry x="240" y="310" width="140" height="70" as="geometry" />
        </mxCell>
        <mxCell id="wb4F1lY3_vZGzMJMdyn--4" value="Delete plant from database" style="ellipse;whiteSpace=wrap;html=1;" vertex="1" parent="1">
          <mxGeometry x="240" y="440" width="140" height="70" as="geometry" />
        </mxCell>
        <mxCell id="wb4F1lY3_vZGzMJMdyn--5" value="Specify plant soil moisture needs" style="ellipse;whiteSpace=wrap;html=1;" vertex="1" parent="1">
          <mxGeometry x="490" y="190" width="140" height="70" as="geometry" />
        </mxCell>
        <mxCell id="wb4F1lY3_vZGzMJMdyn--6" value="Specify plant name" style="ellipse;whiteSpace=wrap;html=1;" vertex="1" parent="1">
          <mxGeometry x="490" y="30" width="140" height="70" as="geometry" />
        </mxCell>
        <mxCell id="wb4F1lY3_vZGzMJMdyn--7" value="&amp;lt;&amp;lt;include&amp;gt;&amp;gt;" style="endArrow=open;endSize=12;dashed=1;html=1;rounded=0;exitX=1;exitY=0;exitDx=0;exitDy=0;" edge="1" parent="1" source="wb4F1lY3_vZGzMJMdyn--2" target="wb4F1lY3_vZGzMJMdyn--6">
          <mxGeometry x="0.1144" y="21" width="160" relative="1" as="geometry">
            <mxPoint x="450" y="130" as="sourcePoint" />
            <mxPoint x="490" y="215" as="targetPoint" />
            <mxPoint as="offset" />
          </mxGeometry>
        </mxCell>
        <mxCell id="wb4F1lY3_vZGzMJMdyn--8" value="&amp;lt;&amp;lt;include&amp;gt;&amp;gt;" style="endArrow=open;endSize=12;dashed=1;html=1;rounded=0;exitX=1;exitY=1;exitDx=0;exitDy=0;entryX=0;entryY=0.5;entryDx=0;entryDy=0;" edge="1" parent="1" source="wb4F1lY3_vZGzMJMdyn--2" target="wb4F1lY3_vZGzMJMdyn--5">
          <mxGeometry x="0.1144" y="21" width="160" relative="1" as="geometry">
            <mxPoint x="470" y="170" as="sourcePoint" />
            <mxPoint x="590" y="220" as="targetPoint" />
            <mxPoint as="offset" />
          </mxGeometry>
        </mxCell>
        <mxCell id="wb4F1lY3_vZGzMJMdyn--9" value="Edit plant light needs" style="ellipse;whiteSpace=wrap;html=1;" vertex="1" parent="1">
          <mxGeometry x="490" y="280" width="140" height="70" as="geometry" />
        </mxCell>
        <mxCell id="wb4F1lY3_vZGzMJMdyn--10" value="Edit plant soil moisture needs" style="ellipse;whiteSpace=wrap;html=1;" vertex="1" parent="1">
          <mxGeometry x="490" y="370" width="140" height="70" as="geometry" />
        </mxCell>
        <mxCell id="wb4F1lY3_vZGzMJMdyn--11" style="rounded=0;orthogonalLoop=1;jettySize=auto;html=1;entryX=0;entryY=0.5;entryDx=0;entryDy=0;endArrow=none;endFill=0;" edge="1" parent="1" target="wb4F1lY3_vZGzMJMdyn--3">
          <mxGeometry relative="1" as="geometry">
            <mxPoint x="110" y="260" as="sourcePoint" />
            <mxPoint x="350" y="340" as="targetPoint" />
          </mxGeometry>
        </mxCell>
        <mxCell id="wb4F1lY3_vZGzMJMdyn--12" value="&amp;lt;&amp;lt;extend&amp;gt;&amp;gt;" style="endArrow=open;endSize=12;dashed=1;html=1;rounded=0;entryX=1;entryY=0;entryDx=0;entryDy=0;exitX=0;exitY=0.5;exitDx=0;exitDy=0;" edge="1" parent="1" source="wb4F1lY3_vZGzMJMdyn--9" target="wb4F1lY3_vZGzMJMdyn--3">
          <mxGeometry x="0.1144" y="21" width="160" relative="1" as="geometry">
            <mxPoint x="370" y="270" as="sourcePoint" />
            <mxPoint x="521" y="390" as="targetPoint" />
            <mxPoint as="offset" />
          </mxGeometry>
        </mxCell>
        <mxCell id="wb4F1lY3_vZGzMJMdyn--13" value="Specify plant light needs" style="ellipse;whiteSpace=wrap;html=1;" vertex="1" parent="1">
          <mxGeometry x="490" y="110" width="140" height="70" as="geometry" />
        </mxCell>
        <mxCell id="wb4F1lY3_vZGzMJMdyn--14" value="&amp;lt;&amp;lt;include&amp;gt;&amp;gt;" style="endArrow=open;endSize=12;dashed=1;html=1;rounded=0;exitX=1;exitY=0.5;exitDx=0;exitDy=0;entryX=0;entryY=0.5;entryDx=0;entryDy=0;" edge="1" parent="1" source="wb4F1lY3_vZGzMJMdyn--2" target="wb4F1lY3_vZGzMJMdyn--13">
          <mxGeometry x="0.1144" y="21" width="160" relative="1" as="geometry">
            <mxPoint x="364.5" y="295" as="sourcePoint" />
            <mxPoint x="565.5" y="250" as="targetPoint" />
            <mxPoint as="offset" />
          </mxGeometry>
        </mxCell>
        <mxCell id="wb4F1lY3_vZGzMJMdyn--15" value="&amp;lt;&amp;lt;extend&amp;gt;&amp;gt;" style="endArrow=open;endSize=12;dashed=1;html=1;rounded=0;entryX=1;entryY=1;entryDx=0;entryDy=0;exitX=0;exitY=0.5;exitDx=0;exitDy=0;" edge="1" parent="1" source="wb4F1lY3_vZGzMJMdyn--10" target="wb4F1lY3_vZGzMJMdyn--3">
          <mxGeometry x="0.1144" y="21" width="160" relative="1" as="geometry">
            <mxPoint x="390" y="410" as="sourcePoint" />
            <mxPoint x="601" y="500" as="targetPoint" />
            <mxPoint as="offset" />
          </mxGeometry>
        </mxCell>
        <mxCell id="wb4F1lY3_vZGzMJMdyn--16" style="rounded=0;orthogonalLoop=1;jettySize=auto;html=1;entryX=0;entryY=0.5;entryDx=0;entryDy=0;endArrow=none;endFill=0;exitX=0.133;exitY=0.392;exitDx=0;exitDy=0;exitPerimeter=0;" edge="1" parent="1" target="wb4F1lY3_vZGzMJMdyn--4">
          <mxGeometry relative="1" as="geometry">
            <mxPoint x="109.64999999999986" y="270.39999999999986" as="sourcePoint" />
            <mxPoint x="420" y="673" as="targetPoint" />
          </mxGeometry>
        </mxCell>
        <mxCell id="wb4F1lY3_vZGzMJMdyn--17" value="&lt;span style=&quot;background-color: light-dark(#ffffff, var(--ge-dark-color, #121212));&quot;&gt;Plant Database&lt;/span&gt;&lt;div&gt;&lt;span style=&quot;background-color: light-dark(#ffffff, var(--ge-dark-color, #121212));&quot;&gt;Manager&lt;/span&gt;&lt;/div&gt;" style="shape=umlActor;verticalLabelPosition=bottom;verticalAlign=top;html=1;outlineConnect=0;" vertex="1" parent="1">
          <mxGeometry x="80" y="220" width="30" height="60" as="geometry" />
        </mxCell>
      </root>
    </mxGraphModel>
  </diagram>
  <diagram id="6BtSLzTv3iNAky6xpU38" name="User">
    <mxGraphModel dx="1426" dy="961" grid="1" gridSize="10" guides="1" tooltips="1" connect="1" arrows="1" fold="1" page="1" pageScale="1" pageWidth="850" pageHeight="1100" math="0" shadow="0">
      <root>
        <mxCell id="0" />
        <mxCell id="1" parent="0" />
        <mxCell id="KWI9m66Pt8BJ04L5AZiS-1" value="User" style="shape=umlActor;verticalLabelPosition=bottom;verticalAlign=top;html=1;outlineConnect=0;" vertex="1" parent="1">
          <mxGeometry x="40" y="200" width="30" height="60" as="geometry" />
        </mxCell>
        <mxCell id="KWI9m66Pt8BJ04L5AZiS-2" value="Register new device" style="ellipse;whiteSpace=wrap;html=1;" vertex="1" parent="1">
          <mxGeometry x="220" y="110" width="140" height="70" as="geometry" />
        </mxCell>
        <mxCell id="KWI9m66Pt8BJ04L5AZiS-3" value="Specify device type" style="ellipse;whiteSpace=wrap;html=1;" vertex="1" parent="1">
          <mxGeometry x="450" y="30" width="140" height="70" as="geometry" />
        </mxCell>
        <mxCell id="KWI9m66Pt8BJ04L5AZiS-4" value="Provide authentication data" style="ellipse;whiteSpace=wrap;html=1;" vertex="1" parent="1">
          <mxGeometry x="450" y="190" width="140" height="70" as="geometry" />
        </mxCell>
        <mxCell id="KWI9m66Pt8BJ04L5AZiS-5" value="Set alert address" style="ellipse;whiteSpace=wrap;html=1;" vertex="1" parent="1">
          <mxGeometry x="220" y="210" width="140" height="70" as="geometry" />
        </mxCell>
        <mxCell id="KWI9m66Pt8BJ04L5AZiS-6" value="Specify plant needs" style="ellipse;whiteSpace=wrap;html=1;" vertex="1" parent="1">
          <mxGeometry x="450" y="280" width="140" height="70" as="geometry" />
        </mxCell>
        <mxCell id="KWI9m66Pt8BJ04L5AZiS-7" value="Specify plant soil moisture needs" style="ellipse;whiteSpace=wrap;html=1;" vertex="1" parent="1">
          <mxGeometry x="640" y="320" width="140" height="70" as="geometry" />
        </mxCell>
        <mxCell id="KWI9m66Pt8BJ04L5AZiS-8" value="Specify plant light needs" style="ellipse;whiteSpace=wrap;html=1;" vertex="1" parent="1">
          <mxGeometry x="640" y="240" width="140" height="70" as="geometry" />
        </mxCell>
        <mxCell id="KWI9m66Pt8BJ04L5AZiS-9" value="Choose plant needs from database" style="ellipse;whiteSpace=wrap;html=1;" vertex="1" parent="1">
          <mxGeometry x="450" y="380" width="140" height="70" as="geometry" />
        </mxCell>
        <mxCell id="KWI9m66Pt8BJ04L5AZiS-10" style="rounded=0;orthogonalLoop=1;jettySize=auto;html=1;entryX=0;entryY=0.5;entryDx=0;entryDy=0;endArrow=none;endFill=0;" edge="1" parent="1" source="KWI9m66Pt8BJ04L5AZiS-1" target="KWI9m66Pt8BJ04L5AZiS-2">
          <mxGeometry relative="1" as="geometry">
            <mxPoint x="190" y="-40" as="sourcePoint" />
            <mxPoint x="340.35000000000014" y="294.60000000000014" as="targetPoint" />
          </mxGeometry>
        </mxCell>
        <mxCell id="KWI9m66Pt8BJ04L5AZiS-11" style="rounded=0;orthogonalLoop=1;jettySize=auto;html=1;entryX=0;entryY=0.5;entryDx=0;entryDy=0;endArrow=none;endFill=0;" edge="1" parent="1" source="KWI9m66Pt8BJ04L5AZiS-1" target="KWI9m66Pt8BJ04L5AZiS-5">
          <mxGeometry relative="1" as="geometry">
            <mxPoint x="110" y="277" as="sourcePoint" />
            <mxPoint x="260" y="200" as="targetPoint" />
          </mxGeometry>
        </mxCell>
        <mxCell id="KWI9m66Pt8BJ04L5AZiS-13" style="rounded=0;orthogonalLoop=1;jettySize=auto;html=1;entryX=0;entryY=0.5;entryDx=0;entryDy=0;endArrow=none;endFill=0;" edge="1" parent="1" source="KWI9m66Pt8BJ04L5AZiS-1" target="KWI9m66Pt8BJ04L5AZiS-18">
          <mxGeometry relative="1" as="geometry">
            <mxPoint x="140" y="427" as="sourcePoint" />
            <mxPoint x="290" y="350" as="targetPoint" />
          </mxGeometry>
        </mxCell>
        <mxCell id="KWI9m66Pt8BJ04L5AZiS-14" value="&amp;lt;&amp;lt;include&amp;gt;&amp;gt;" style="endArrow=open;endSize=12;dashed=1;html=1;rounded=0;exitX=1;exitY=0;exitDx=0;exitDy=0;entryX=0;entryY=0.5;entryDx=0;entryDy=0;" edge="1" parent="1" source="KWI9m66Pt8BJ04L5AZiS-2" target="KWI9m66Pt8BJ04L5AZiS-3">
          <mxGeometry x="0.1242" y="12" width="160" relative="1" as="geometry">
            <mxPoint x="360" y="70" as="sourcePoint" />
            <mxPoint x="471" y="85" as="targetPoint" />
            <mxPoint as="offset" />
          </mxGeometry>
        </mxCell>
        <mxCell id="KWI9m66Pt8BJ04L5AZiS-15" value="&amp;lt;&amp;lt;include&amp;gt;&amp;gt;" style="endArrow=open;endSize=12;dashed=1;html=1;rounded=0;exitX=1;exitY=1;exitDx=0;exitDy=0;entryX=0;entryY=0.5;entryDx=0;entryDy=0;" edge="1" parent="1" source="KWI9m66Pt8BJ04L5AZiS-2" target="KWI9m66Pt8BJ04L5AZiS-4">
          <mxGeometry x="0.1242" y="12" width="160" relative="1" as="geometry">
            <mxPoint x="390" y="135" as="sourcePoint" />
            <mxPoint x="501" y="120" as="targetPoint" />
            <mxPoint as="offset" />
          </mxGeometry>
        </mxCell>
        <mxCell id="KWI9m66Pt8BJ04L5AZiS-16" value="&amp;lt;&amp;lt;include&amp;gt;&amp;gt;" style="endArrow=open;endSize=12;dashed=1;html=1;rounded=0;exitX=1;exitY=0;exitDx=0;exitDy=0;entryX=0;entryY=0.5;entryDx=0;entryDy=0;" edge="1" parent="1" source="KWI9m66Pt8BJ04L5AZiS-6" target="KWI9m66Pt8BJ04L5AZiS-8">
          <mxGeometry x="0.1242" y="12" width="160" relative="1" as="geometry">
            <mxPoint x="780" y="165" as="sourcePoint" />
            <mxPoint x="891" y="150" as="targetPoint" />
            <mxPoint as="offset" />
          </mxGeometry>
        </mxCell>
        <mxCell id="KWI9m66Pt8BJ04L5AZiS-17" value="&amp;lt;&amp;lt;include&amp;gt;&amp;gt;" style="endArrow=open;endSize=12;dashed=1;html=1;rounded=0;exitX=1;exitY=1;exitDx=0;exitDy=0;entryX=0;entryY=0.5;entryDx=0;entryDy=0;" edge="1" parent="1" source="KWI9m66Pt8BJ04L5AZiS-6" target="KWI9m66Pt8BJ04L5AZiS-7">
          <mxGeometry x="0.1242" y="12" width="160" relative="1" as="geometry">
            <mxPoint x="770" y="275" as="sourcePoint" />
            <mxPoint x="881" y="260" as="targetPoint" />
            <mxPoint as="offset" />
          </mxGeometry>
        </mxCell>
        <mxCell id="KWI9m66Pt8BJ04L5AZiS-18" value="Add new plant to managed plants" style="ellipse;whiteSpace=wrap;html=1;" vertex="1" parent="1">
          <mxGeometry x="220" y="330" width="140" height="70" as="geometry" />
        </mxCell>
        <mxCell id="KWI9m66Pt8BJ04L5AZiS-19" value="Add device to plant" style="ellipse;whiteSpace=wrap;html=1;" vertex="1" parent="1">
          <mxGeometry x="450" y="110" width="140" height="70" as="geometry" />
        </mxCell>
        <mxCell id="KWI9m66Pt8BJ04L5AZiS-20" value="&amp;lt;&amp;lt;include&amp;gt;&amp;gt;" style="endArrow=open;endSize=12;dashed=1;html=1;rounded=0;exitX=1;exitY=0.5;exitDx=0;exitDy=0;entryX=0;entryY=0.5;entryDx=0;entryDy=0;" edge="1" parent="1" source="KWI9m66Pt8BJ04L5AZiS-2" target="KWI9m66Pt8BJ04L5AZiS-19">
          <mxGeometry x="0.1242" y="12" width="160" relative="1" as="geometry">
            <mxPoint x="370" y="175" as="sourcePoint" />
            <mxPoint x="481" y="110" as="targetPoint" />
            <mxPoint as="offset" />
          </mxGeometry>
        </mxCell>
        <mxCell id="KWI9m66Pt8BJ04L5AZiS-21" value="&amp;lt;&amp;lt;extend&amp;gt;&amp;gt;" style="endArrow=open;endSize=12;dashed=1;html=1;rounded=0;exitX=0;exitY=0.5;exitDx=0;exitDy=0;entryX=1;entryY=0;entryDx=0;entryDy=0;" edge="1" parent="1" source="KWI9m66Pt8BJ04L5AZiS-6" target="KWI9m66Pt8BJ04L5AZiS-18">
          <mxGeometry x="0.1242" y="12" width="160" relative="1" as="geometry">
            <mxPoint x="580" y="365" as="sourcePoint" />
            <mxPoint x="410" y="400" as="targetPoint" />
            <mxPoint as="offset" />
          </mxGeometry>
        </mxCell>
        <mxCell id="KWI9m66Pt8BJ04L5AZiS-22" value="&amp;lt;&amp;lt;extend&amp;gt;&amp;gt;" style="endArrow=open;endSize=12;dashed=1;html=1;rounded=0;exitX=0;exitY=0.5;exitDx=0;exitDy=0;entryX=1;entryY=1;entryDx=0;entryDy=0;" edge="1" parent="1" source="KWI9m66Pt8BJ04L5AZiS-9" target="KWI9m66Pt8BJ04L5AZiS-18">
          <mxGeometry x="0.1242" y="12" width="160" relative="1" as="geometry">
            <mxPoint x="400" y="425" as="sourcePoint" />
            <mxPoint x="420" y="490" as="targetPoint" />
            <mxPoint as="offset" />
          </mxGeometry>
        </mxCell>
        <mxCell id="KWI9m66Pt8BJ04L5AZiS-23" value="Edit plant needs" style="ellipse;whiteSpace=wrap;html=1;" vertex="1" parent="1">
          <mxGeometry x="220" y="510" width="140" height="70" as="geometry" />
        </mxCell>
        <mxCell id="KWI9m66Pt8BJ04L5AZiS-24" style="rounded=0;orthogonalLoop=1;jettySize=auto;html=1;entryX=0;entryY=0.5;entryDx=0;entryDy=0;endArrow=none;endFill=0;" edge="1" parent="1" source="KWI9m66Pt8BJ04L5AZiS-1" target="KWI9m66Pt8BJ04L5AZiS-23">
          <mxGeometry relative="1" as="geometry">
            <mxPoint x="170" y="330" as="sourcePoint" />
            <mxPoint x="320" y="435" as="targetPoint" />
          </mxGeometry>
        </mxCell>
        <mxCell id="KWI9m66Pt8BJ04L5AZiS-29" value="Edit plant soil moisture needs" style="ellipse;whiteSpace=wrap;html=1;" vertex="1" parent="1">
          <mxGeometry x="450" y="560" width="140" height="70" as="geometry" />
        </mxCell>
        <mxCell id="KWI9m66Pt8BJ04L5AZiS-30" value="Edit plant light needs" style="ellipse;whiteSpace=wrap;html=1;" vertex="1" parent="1">
          <mxGeometry x="450" y="470" width="140" height="70" as="geometry" />
        </mxCell>
        <mxCell id="KWI9m66Pt8BJ04L5AZiS-31" value="&amp;lt;&amp;lt;extend&amp;gt;&amp;gt;" style="endArrow=open;endSize=12;dashed=1;html=1;rounded=0;exitX=0;exitY=0.5;exitDx=0;exitDy=0;entryX=1;entryY=0;entryDx=0;entryDy=0;" edge="1" parent="1" target="KWI9m66Pt8BJ04L5AZiS-23" source="KWI9m66Pt8BJ04L5AZiS-30">
          <mxGeometry x="0.1242" y="12" width="160" relative="1" as="geometry">
            <mxPoint x="390" y="490" as="sourcePoint" />
            <mxPoint x="712" y="350" as="targetPoint" />
            <mxPoint as="offset" />
          </mxGeometry>
        </mxCell>
        <mxCell id="KWI9m66Pt8BJ04L5AZiS-32" value="&amp;lt;&amp;lt;extend&amp;gt;&amp;gt;" style="endArrow=open;endSize=12;dashed=1;html=1;rounded=0;exitX=0;exitY=0.5;exitDx=0;exitDy=0;entryX=1;entryY=1;entryDx=0;entryDy=0;" edge="1" parent="1" target="KWI9m66Pt8BJ04L5AZiS-23" source="KWI9m66Pt8BJ04L5AZiS-29">
          <mxGeometry x="0.1242" y="12" width="160" relative="1" as="geometry">
            <mxPoint x="390" y="540" as="sourcePoint" />
            <mxPoint x="702" y="460" as="targetPoint" />
            <mxPoint as="offset" />
          </mxGeometry>
        </mxCell>
      </root>
    </mxGraphModel>
  </diagram>
</mxfile>
